<svg xmlns="http://www.w3.org/2000/svg" width="379" height="377" viewBox="0 0 379 377">
  <defs>
    <style>
      .cls-1 {
        fill: #bfe79e;
        fill-rule: evenodd;
      }
    </style>
  </defs>
  <path id="Shape_3_copy" data-name="Shape 3 copy" class="cls-1" d="M1869,1358l-381,1,11.21,10-10.19,10,10.19,12-10.19,11,12.22,12L1488,1425l12.22,11-11.2,11,10.19,10L1488,1468l12.22,12-12.22,9,11.21,12-10.19,11,10.19,12L1488,1536l11.21,11-10.19,11,10.19,12L1488,1581l10.19,11-9.17,9,10.19,12L1488,1624l11.21,12L1488,1648l11.21,11-10.19,10,10.19,10-10.19,11,10.19,11-10.19,12,11.2,10L1488,1735h379.98Z" transform="translate(-1488 -1358)"/>
</svg>
