<svg xmlns="http://www.w3.org/2000/svg"
 xmlns:xlink="http://www.w3.org/1999/xlink"
 width="376px" height="380px"  viewBox="0 0 376 379">
<path fill-rule="evenodd"  fill="#7dd5c9"
 d="M1.0000305,1.9998169 C1.0000305,1.9998169 374.99994,2.9919434 374.99994,2.9919434 C374.99994,2.9919434 363.99988,12.9123535 363.99988,12.9123535 C363.99988,12.9123535 373.99988,22.832764 373.99988,22.832764 C373.99988,22.832764 363.99988,34.737305 363.99988,34.737305 C363.99988,34.737305 373.99988,45.64966 373.99988,45.64966 C373.99988,45.64966 361.99994,57.5542 361.99994,57.5542 C361.99994,57.5542 374.99994,68.46661 374.99994,68.46661 C374.99994,68.46661 362.99988,79.37915 362.99988,79.37915 C362.99988,79.37915 373.99988,90.291504 373.99988,90.291504 C373.99988,90.291504 363.99988,100.211914 363.99988,100.211914 C363.99988,100.211914 374.99994,111.12463 374.99994,111.12463 C374.99994,111.12463 362.99988,123.02905 362.99988,123.02905 C362.99988,123.02905 374.99994,131.95746 374.99994,131.95746 C374.99994,131.95746 363.99988,143.862 363.99988,143.862 C363.99988,143.862 373.99988,154.77435 373.99988,154.77435 C373.99988,154.77435 363.99988,166.6789 363.99988,166.6789 C363.99988,166.6789 374.99994,178.58344 374.99994,178.58344 C374.99994,178.58344 363.99988,189.49579 363.99988,189.49579 C363.99988,189.49579 373.99988,200.40833 373.99988,200.40833 C373.99988,200.40833 363.99988,212.31287 363.99988,212.31287 C363.99988,212.31287 374.99994,223.22528 374.99994,223.22528 C374.99994,223.22528 364.99994,234.13763 364.99994,234.13763 C364.99994,234.13763 373.99988,243.0661 373.99988,243.0661 C373.99988,243.0661 363.99988,254.97058 363.99988,254.97058 C363.99988,254.97058 374.99994,265.88318 374.99994,265.88318 C374.99994,265.88318 363.99988,277.78772 363.99988,277.78772 C363.99988,277.78772 374.99994,289.6922 374.99994,289.6922 C374.99994,289.6922 363.99988,300.6046 363.99988,300.6046 C363.99988,300.6046 373.99988,310.52502 373.99988,310.52502 C373.99988,310.52502 363.99988,320.44543 363.99988,320.44543 C363.99988,320.44543 373.99988,331.35797 373.99988,331.35797 C373.99988,331.35797 363.99988,342.2704 363.99988,342.2704 C363.99988,342.2704 373.99988,354.17487 373.99988,354.17487 C373.99988,354.17487 362.99988,364.09534 362.99988,364.09534 C362.99988,364.09534 374.99994,375.99976 374.99994,375.99976 C374.99994,375.99976 2.0,375.99976 2.0,375.99976 C2.0,375.99976 1.0000305,1.9998169 1.0000305,1.9998169 Z"/>
</svg>